<svg xmlns="http://www.w3.org/2000/svg" xmlns:xlink="http://www.w3.org/1999/xlink" version="1.1" class="marks" width="385" height="259" viewBox="0 0 385 259"><rect width="385" height="259" fill="white"/><g fill="none" stroke-miterlimit="10" transform="translate(79,22)"><g class="mark-group role-frame root" role="graphics-object" aria-roledescription="group mark container"><g transform="translate(0,0)"><path class="background" aria-hidden="true" d="M0.5,0.5h200v200h-200Z" stroke="#ddd"/><g><g class="mark-group role-axis" aria-hidden="true"><g transform="translate(0.5,200.5)"><path class="background" aria-hidden="true" d="M0,0h0v0h0Z" pointer-events="none"/><g><g class="mark-rule role-axis-grid" pointer-events="none"><line transform="translate(25,0)" x2="0" y2="-200" stroke="#ddd" stroke-width="1" opacity="1"/><line transform="translate(69,0)" x2="0" y2="-200" stroke="#ddd" stroke-width="1" opacity="1"/><line transform="translate(112,0)" x2="0" y2="-200" stroke="#ddd" stroke-width="1" opacity="1"/><line transform="translate(156,0)" x2="0" y2="-200" stroke="#ddd" stroke-width="1" opacity="1"/><line transform="translate(200,0)" x2="0" y2="-200" stroke="#ddd" stroke-width="1" opacity="1"/></g></g><path class="foreground" aria-hidden="true" d="" pointer-events="none" display="none"/></g></g><g class="mark-group role-axis" role="graphics-symbol" aria-roledescription="axis" aria-label="X-axis titled 'Time (s)' for a linear scale with values from 3 to 12"><g transform="translate(0.5,200.5)"><path class="background" aria-hidden="true" d="M0,0h0v0h0Z" pointer-events="none"/><g><g class="mark-rule role-axis-tick" pointer-events="none"><line transform="translate(25,0)" x2="0" y2="5" stroke="#888" stroke-width="1" opacity="1"/><line transform="translate(69,0)" x2="0" y2="5" stroke="#888" stroke-width="1" opacity="1"/><line transform="translate(112,0)" x2="0" y2="5" stroke="#888" stroke-width="1" opacity="1"/><line transform="translate(156,0)" x2="0" y2="5" stroke="#888" stroke-width="1" opacity="1"/><line transform="translate(200,0)" x2="0" y2="5" stroke="#888" stroke-width="1" opacity="1"/></g><g class="mark-text role-axis-label" pointer-events="none"><text text-anchor="middle" transform="translate(25.05670843332978,15)" font-family="sans-serif" font-size="10px" fill="#000" opacity="1">4</text><text text-anchor="middle" transform="translate(68.73644386298831,15)" font-family="sans-serif" font-size="10px" fill="#000" opacity="1">6</text><text text-anchor="middle" transform="translate(112.41617929264682,15)" font-family="sans-serif" font-size="10px" fill="#000" opacity="1">8</text><text text-anchor="middle" transform="translate(156.09591472230534,15)" font-family="sans-serif" font-size="10px" fill="#000" opacity="1">10</text><text text-anchor="end" transform="translate(199.77565015196387,15)" font-family="sans-serif" font-size="10px" fill="#000" opacity="1">12</text></g><g class="mark-rule role-axis-domain" pointer-events="none"><line transform="translate(0,0)" x2="200" y2="0" stroke="#888" stroke-width="1" opacity="1"/></g><g class="mark-text role-axis-title" pointer-events="none"><text text-anchor="middle" transform="translate(100,30)" font-family="sans-serif" font-size="11px" font-weight="bold" fill="#000" opacity="1">Time (s)</text></g></g><path class="foreground" aria-hidden="true" d="" pointer-events="none" display="none"/></g></g><g class="mark-group role-axis" role="graphics-symbol" aria-roledescription="axis" aria-label="Y-axis for a discrete scale with 2 values: bcftools, exon-vcf-query"><g transform="translate(0.5,0.5)"><path class="background" aria-hidden="true" d="M0,0h0v0h0Z" pointer-events="none"/><g><g class="mark-rule role-axis-tick" pointer-events="none"><line transform="translate(0,54)" x2="-5" y2="0" stroke="#888" stroke-width="1" opacity="1"/><line transform="translate(0,145)" x2="-5" y2="0" stroke="#888" stroke-width="1" opacity="1"/></g><g class="mark-text role-axis-label" pointer-events="none"><text text-anchor="end" transform="translate(-7,57.045454545454554)" font-family="sans-serif" font-size="10px" fill="#000" opacity="1">bcftools</text><text text-anchor="end" transform="translate(-7,147.95454545454547)" font-family="sans-serif" font-size="10px" fill="#000" opacity="1">exon-vcf-query</text></g><g class="mark-rule role-axis-domain" pointer-events="none"><line transform="translate(0,0)" x2="0" y2="200" stroke="#888" stroke-width="1" opacity="1"/></g></g><path class="foreground" aria-hidden="true" d="" pointer-events="none" display="none"/></g></g><g class="mark-symbol role-mark marks" role="graphics-object" aria-roledescription="symbol mark container"><path aria-label="Time (s): 10.0102724912; Run Group: bcftools; jitter: 0.439005548069" role="graphics-symbol" aria-roledescription="point" transform="translate(156.32026457034146,61.06628870888151)" d="M2.121,0A2.121,2.121,0,1,1,-2.121,0A2.121,2.121,0,1,1,2.121,0" stroke="#4c78a8" stroke-width="2" opacity="0.7"/><path aria-label="Time (s): 9.76966965716; Run Group: bcftools; jitter: 0.000200625398164" role="graphics-symbol" aria-roledescription="point" transform="translate(151.06553050396846,44.17467526507802)" d="M2.121,0A2.121,2.121,0,1,1,-2.121,0A2.121,2.121,0,1,1,2.121,0" stroke="#4c78a8" stroke-width="2" opacity="0.7"/><path aria-label="Time (s): 9.83235382416; Run Group: bcftools; jitter: 0.626972475705" role="graphics-symbol" aria-roledescription="point" transform="translate(152.43454441906275,68.3019976032312)" d="M2.121,0A2.121,2.121,0,1,1,-2.121,0A2.121,2.121,0,1,1,2.121,0" stroke="#4c78a8" stroke-width="2" opacity="0.7"/><path aria-label="Time (s): 9.76704594916; Run Group: bcftools; jitter: −0.325659943019" role="graphics-symbol" aria-roledescription="point" transform="translate(151.00822906832613,31.63080787911442)" d="M2.121,0A2.121,2.121,0,1,1,-2.121,0A2.121,2.121,0,1,1,2.121,0" stroke="#4c78a8" stroke-width="2" opacity="0.7"/><path aria-label="Time (s): 9.75018157416; Run Group: bcftools; jitter: −0.156858307512" role="graphics-symbol" aria-roledescription="point" transform="translate(150.63991334923284,38.12875680439019)" d="M2.121,0A2.121,2.121,0,1,1,-2.121,0A2.121,2.121,0,1,1,2.121,0" stroke="#4c78a8" stroke-width="2" opacity="0.7"/><path aria-label="Time (s): 4.91655482416; Run Group: exon-vcf-query; jitter: −0.675033488877" role="graphics-symbol" aria-roledescription="point" transform="translate(45.07414454637278,109.0909090909091)" d="M2.121,0A2.121,2.121,0,1,1,-2.121,0A2.121,2.121,0,1,1,2.121,0" stroke="#f58518" stroke-width="2" opacity="0.7"/><path aria-label="Time (s): 4.90290832416; Run Group: exon-vcf-query; jitter: 0.690202357291" role="graphics-symbol" aria-roledescription="point" transform="translate(44.77610679160236,161.64509657074672)" d="M2.121,0A2.121,2.121,0,1,1,-2.121,0A2.121,2.121,0,1,1,2.121,0" stroke="#f58518" stroke-width="2" opacity="0.7"/><path aria-label="Time (s): 4.90137865716; Run Group: exon-vcf-query; jitter: −0.062194671883" role="graphics-symbol" aria-roledescription="point" transform="translate(44.742699066674625,132.68188509232067)" d="M2.121,0A2.121,2.121,0,1,1,-2.121,0A2.121,2.121,0,1,1,2.121,0" stroke="#f58518" stroke-width="2" opacity="0.7"/><path aria-label="Time (s): 4.85270786616; Run Group: exon-vcf-query; jitter: 0.54457356676" role="graphics-symbol" aria-roledescription="point" transform="translate(43.679735429658514,156.0391766987013)" d="M2.121,0A2.121,2.121,0,1,1,-2.121,0A2.121,2.121,0,1,1,2.121,0" stroke="#f58518" stroke-width="2" opacity="0.7"/><path aria-label="Time (s): 4.95728836616; Run Group: exon-vcf-query; jitter: 1.21425230323" role="graphics-symbol" aria-roledescription="point" transform="translate(45.96375971520922,181.8181818181818)" d="M2.121,0A2.121,2.121,0,1,1,-2.121,0A2.121,2.121,0,1,1,2.121,0" stroke="#f58518" stroke-width="2" opacity="0.7"/></g><g class="mark-group role-legend" role="graphics-symbol" aria-roledescription="legend" aria-label="Symbol legend titled 'Run Group' for stroke color with 2 values: bcftools, exon-vcf-query"><g transform="translate(218,0)"><path class="background" aria-hidden="true" d="M0,0h83v45h-83Z" pointer-events="none"/><g><g class="mark-group role-legend-entry"><g transform="translate(0,16)"><path class="background" aria-hidden="true" d="M0,0h0v0h0Z" pointer-events="none"/><g><g class="mark-group role-scope" role="graphics-object" aria-roledescription="group mark container"><g transform="translate(0,0)"><path class="background" aria-hidden="true" d="M0,0h82.1376953125v12.5h-82.1376953125Z" pointer-events="none" opacity="1"/><g><g class="mark-symbol role-legend-symbol" pointer-events="none"><path transform="translate(6,6)" d="M5,0A5,5,0,1,1,-5,0A5,5,0,1,1,5,0" stroke="#4c78a8" stroke-width="1.5" opacity="0.7"/></g><g class="mark-text role-legend-label" pointer-events="none"><text text-anchor="start" transform="translate(16,9)" font-family="sans-serif" font-size="10px" fill="#000" opacity="1">bcftools</text></g></g><path class="foreground" aria-hidden="true" d="" pointer-events="none" display="none"/></g><g transform="translate(0,16)"><path class="background" aria-hidden="true" d="M0,0h82.1376953125v12.5h-82.1376953125Z" pointer-events="none" opacity="1"/><g><g class="mark-symbol role-legend-symbol" pointer-events="none"><path transform="translate(6,6)" d="M5,0A5,5,0,1,1,-5,0A5,5,0,1,1,5,0" stroke="#f58518" stroke-width="1.5" opacity="0.7"/></g><g class="mark-text role-legend-label" pointer-events="none"><text text-anchor="start" transform="translate(16,9)" font-family="sans-serif" font-size="10px" fill="#000" opacity="1">exon-vcf-query</text></g></g><path class="foreground" aria-hidden="true" d="" pointer-events="none" display="none"/></g></g></g><path class="foreground" aria-hidden="true" d="" pointer-events="none" display="none"/></g></g><g class="mark-text role-legend-title" pointer-events="none"><text text-anchor="start" transform="translate(0,9)" font-family="sans-serif" font-size="11px" font-weight="bold" fill="#000" opacity="1">Run Group</text></g></g><path class="foreground" aria-hidden="true" d="" pointer-events="none" display="none"/></g></g><g class="mark-group role-title"><g transform="translate(100,-17)"><path class="background" aria-hidden="true" d="M0,0h0v0h0Z" pointer-events="none"/><g><g class="mark-text role-title-text" role="graphics-symbol" aria-roledescription="title" aria-label="Title text '1000 Genomes Project VCF Chr1 SHAPEIT'" pointer-events="none"><text text-anchor="middle" transform="translate(0,10)" font-family="sans-serif" font-size="13px" font-weight="bold" fill="#000" opacity="1">1000 Genomes Project VCF Chr1 SHAPEIT</text></g></g><path class="foreground" aria-hidden="true" d="" pointer-events="none" display="none"/></g></g></g><path class="foreground" aria-hidden="true" d="" display="none"/></g></g></g></svg>