<svg xmlns="http://www.w3.org/2000/svg" xmlns:xlink="http://www.w3.org/1999/xlink" version="1.1" class="marks" width="466" height="259" viewBox="0 0 466 259"><rect width="466" height="259" fill="white"/><g fill="none" stroke-miterlimit="10" transform="translate(120,22)"><g class="mark-group role-frame root" role="graphics-object" aria-roledescription="group mark container"><g transform="translate(0,0)"><path class="background" aria-hidden="true" d="M0.5,0.5h200v200h-200Z" stroke="#ddd"/><g><g class="mark-group role-axis" aria-hidden="true"><g transform="translate(0.5,200.5)"><path class="background" aria-hidden="true" d="M0,0h0v0h0Z" pointer-events="none"/><g><g class="mark-rule role-axis-grid" pointer-events="none"><line transform="translate(17,0)" x2="0" y2="-200" stroke="#ddd" stroke-width="1" opacity="1"/><line transform="translate(48,0)" x2="0" y2="-200" stroke="#ddd" stroke-width="1" opacity="1"/><line transform="translate(79,0)" x2="0" y2="-200" stroke="#ddd" stroke-width="1" opacity="1"/><line transform="translate(111,0)" x2="0" y2="-200" stroke="#ddd" stroke-width="1" opacity="1"/><line transform="translate(142,0)" x2="0" y2="-200" stroke="#ddd" stroke-width="1" opacity="1"/><line transform="translate(173,0)" x2="0" y2="-200" stroke="#ddd" stroke-width="1" opacity="1"/></g></g><path class="foreground" aria-hidden="true" d="" pointer-events="none" display="none"/></g></g><g class="mark-group role-axis" role="graphics-symbol" aria-roledescription="axis" aria-label="X-axis titled 'Time (s)' for a linear scale with values from 6 to 13"><g transform="translate(0.5,200.5)"><path class="background" aria-hidden="true" d="M0,0h0v0h0Z" pointer-events="none"/><g><g class="mark-rule role-axis-tick" pointer-events="none"><line transform="translate(17,0)" x2="0" y2="5" stroke="#888" stroke-width="1" opacity="1"/><line transform="translate(48,0)" x2="0" y2="5" stroke="#888" stroke-width="1" opacity="1"/><line transform="translate(79,0)" x2="0" y2="5" stroke="#888" stroke-width="1" opacity="1"/><line transform="translate(111,0)" x2="0" y2="5" stroke="#888" stroke-width="1" opacity="1"/><line transform="translate(142,0)" x2="0" y2="5" stroke="#888" stroke-width="1" opacity="1"/><line transform="translate(173,0)" x2="0" y2="5" stroke="#888" stroke-width="1" opacity="1"/></g><g class="mark-text role-axis-label" pointer-events="none"><text text-anchor="middle" transform="translate(16.825494858006778,15)" font-family="sans-serif" font-size="10px" fill="#000" opacity="1">7</text><text text-anchor="middle" transform="translate(48.1168350747744,15)" font-family="sans-serif" font-size="10px" fill="#000" opacity="1">8</text><text text-anchor="middle" transform="translate(79.40817529154202,15)" font-family="sans-serif" font-size="10px" fill="#000" opacity="1">9</text><text text-anchor="middle" transform="translate(110.69951550830966,15)" font-family="sans-serif" font-size="10px" fill="#000" opacity="1">10</text><text text-anchor="middle" transform="translate(141.99085572507727,15)" font-family="sans-serif" font-size="10px" fill="#000" opacity="1">11</text><text text-anchor="middle" transform="translate(173.2821959418449,15)" font-family="sans-serif" font-size="10px" fill="#000" opacity="1">12</text></g><g class="mark-rule role-axis-domain" pointer-events="none"><line transform="translate(0,0)" x2="200" y2="0" stroke="#888" stroke-width="1" opacity="1"/></g><g class="mark-text role-axis-title" pointer-events="none"><text text-anchor="middle" transform="translate(100,30)" font-family="sans-serif" font-size="11px" font-weight="bold" fill="#000" opacity="1">Time (s)</text></g></g><path class="foreground" aria-hidden="true" d="" pointer-events="none" display="none"/></g></g><g class="mark-group role-axis" role="graphics-symbol" aria-roledescription="axis" aria-label="Y-axis for a discrete scale with 3 values: bcftools, exon-vcf-query, exon-vcf-query-two-files"><g transform="translate(0.5,0.5)"><path class="background" aria-hidden="true" d="M0,0h0v0h0Z" pointer-events="none"/><g><g class="mark-rule role-axis-tick" pointer-events="none"><line transform="translate(0,37)" x2="-5" y2="0" stroke="#888" stroke-width="1" opacity="1"/><line transform="translate(0,100)" x2="-5" y2="0" stroke="#888" stroke-width="1" opacity="1"/><line transform="translate(0,162)" x2="-5" y2="0" stroke="#888" stroke-width="1" opacity="1"/></g><g class="mark-text role-axis-label" pointer-events="none"><text text-anchor="end" transform="translate(-7,40)" font-family="sans-serif" font-size="10px" fill="#000" opacity="1">bcftools</text><text text-anchor="end" transform="translate(-7,102.5)" font-family="sans-serif" font-size="10px" fill="#000" opacity="1">exon-vcf-query</text><text text-anchor="end" transform="translate(-7,165)" font-family="sans-serif" font-size="10px" fill="#000" opacity="1">exon-vcf-query-two-files</text></g><g class="mark-rule role-axis-domain" pointer-events="none"><line transform="translate(0,0)" x2="0" y2="200" stroke="#888" stroke-width="1" opacity="1"/></g></g><path class="foreground" aria-hidden="true" d="" pointer-events="none" display="none"/></g></g><g class="mark-symbol role-mark marks" role="graphics-object" aria-roledescription="symbol mark container"><path aria-label="Time (s): 10.8419728628; Run Group: bcftools; jitter: 1.12189170161" role="graphics-symbol" aria-roledescription="point" transform="translate(137.0459748120961,53.07697930942032)" d="M2.121,0A2.121,2.121,0,1,1,-2.121,0A2.121,2.121,0,1,1,2.121,0" stroke="#4c78a8" stroke-width="2" opacity="0.7"/><path aria-label="Time (s): 10.8157836958; Run Group: bcftools; jitter: 1.81790578553" role="graphics-symbol" aria-roledescription="point" transform="translate(136.2264806775053,62.50000000000001)" d="M2.121,0A2.121,2.121,0,1,1,-2.121,0A2.121,2.121,0,1,1,2.121,0" stroke="#4c78a8" stroke-width="2" opacity="0.7"/><path aria-label="Time (s): 10.8538401958; Run Group: bcftools; jitter: −0.896847879191" role="graphics-symbol" aria-roledescription="point" transform="translate(137.41731956646476,25.746174835601472)" d="M2.121,0A2.121,2.121,0,1,1,-2.121,0A2.121,2.121,0,1,1,2.121,0" stroke="#4c78a8" stroke-width="2" opacity="0.7"/><path aria-label="Time (s): 10.8323307788; Run Group: bcftools; jitter: 0.390483144074" role="graphics-symbol" aria-roledescription="point" transform="translate(136.74426108125343,43.17476880809328)" d="M2.121,0A2.121,2.121,0,1,1,-2.121,0A2.121,2.121,0,1,1,2.121,0" stroke="#4c78a8" stroke-width="2" opacity="0.7"/><path aria-label="Time (s): 10.8281872798; Run Group: bcftools; jitter: −0.386231642884" role="graphics-symbol" aria-roledescription="point" transform="translate(136.61460544435658,32.6591777055108)" d="M2.121,0A2.121,2.121,0,1,1,-2.121,0A2.121,2.121,0,1,1,2.121,0" stroke="#4c78a8" stroke-width="2" opacity="0.7"/><path aria-label="Time (s): 8.47614711182; Run Group: exon-vcf-query; jitter: 0.595446834785" role="graphics-symbol" aria-roledescription="point" transform="translate(63.0161163439653,108.44967975169646)" d="M2.121,0A2.121,2.121,0,1,1,-2.121,0A2.121,2.121,0,1,1,2.121,0" stroke="#f58518" stroke-width="2" opacity="0.7"/><path aria-label="Time (s): 8.49922294582; Run Group: exon-vcf-query; jitter: −1.87525220902" role="graphics-symbol" aria-roledescription="point" transform="translate(63.73819011644496,75)" d="M2.121,0A2.121,2.121,0,1,1,-2.121,0A2.121,2.121,0,1,1,2.121,0" stroke="#f58518" stroke-width="2" opacity="0.7"/><path aria-label="Time (s): 8.48465136282; Run Group: exon-vcf-query; jitter: −0.930170628199" role="graphics-symbol" aria-roledescription="point" transform="translate(63.28222575529509,87.79503316962192)" d="M2.121,0A2.121,2.121,0,1,1,-2.121,0A2.121,2.121,0,1,1,2.121,0" stroke="#f58518" stroke-width="2" opacity="0.7"/><path aria-label="Time (s): 8.46229548682; Run Group: exon-vcf-query; jitter: −0.633256889734" role="graphics-symbol" aria-roledescription="point" transform="translate(62.582680433535245,91.81481432849486)" d="M2.121,0A2.121,2.121,0,1,1,-2.121,0A2.121,2.121,0,1,1,2.121,0" stroke="#f58518" stroke-width="2" opacity="0.7"/><path aria-label="Time (s): 8.47025865382; Run Group: exon-vcf-query; jitter: −0.483037062987" role="graphics-symbol" aria-roledescription="point" transform="translate(62.83185860133518,93.84857279439912)" d="M2.121,0A2.121,2.121,0,1,1,-2.121,0A2.121,2.121,0,1,1,2.121,0" stroke="#f58518" stroke-width="2" opacity="0.7"/><path aria-label="Time (s): 8.65070986282; Run Group: exon-vcf-query-two-files; jitter: −0.190139267331" role="graphics-symbol" aria-roledescription="point" transform="translate(68.47841877468119,160.31398391529598)" d="M2.121,0A2.121,2.121,0,1,1,-2.121,0A2.121,2.121,0,1,1,2.121,0" stroke="#e45756" stroke-width="2" opacity="0.7"/><path aria-label="Time (s): 8.66949623782; Run Group: exon-vcf-query-two-files; jitter: 0.0380402554538" role="graphics-symbol" aria-roledescription="point" transform="translate(69.06626962624594,163.40320353603357)" d="M2.121,0A2.121,2.121,0,1,1,-2.121,0A2.121,2.121,0,1,1,2.121,0" stroke="#e45756" stroke-width="2" opacity="0.7"/><path aria-label="Time (s): 8.63594944582; Run Group: exon-vcf-query-two-files; jitter: 0.560144681076" role="graphics-symbol" aria-roledescription="point" transform="translate(68.01654554459283,170.47173981843446)" d="M2.121,0A2.121,2.121,0,1,1,-2.121,0A2.121,2.121,0,1,1,2.121,0" stroke="#e45756" stroke-width="2" opacity="0.7"/><path aria-label="Time (s): 8.65467302882; Run Group: exon-vcf-query-two-files; jitter: 0.386080714847" role="graphics-symbol" aria-roledescription="point" transform="translate(68.60243155032272,168.11516630484664)" d="M2.121,0A2.121,2.121,0,1,1,-2.121,0A2.121,2.121,0,1,1,2.121,0" stroke="#e45756" stroke-width="2" opacity="0.7"/><path aria-label="Time (s): 8.65676132082; Run Group: exon-vcf-query-two-files; jitter: −1.00986011145" role="graphics-symbol" aria-roledescription="point" transform="translate(68.66777700576667,149.21615320608723)" d="M2.121,0A2.121,2.121,0,1,1,-2.121,0A2.121,2.121,0,1,1,2.121,0" stroke="#e45756" stroke-width="2" opacity="0.7"/></g><g class="mark-group role-legend" role="graphics-symbol" aria-roledescription="legend" aria-label="Symbol legend titled 'Run Group' for stroke color with 3 values: bcftools, exon-vcf-query, exon-vcf-query-two-files"><g transform="translate(218,0)"><path class="background" aria-hidden="true" d="M0,0h123v61h-123Z" pointer-events="none"/><g><g class="mark-group role-legend-entry"><g transform="translate(0,16)"><path class="background" aria-hidden="true" d="M0,0h0v0h0Z" pointer-events="none"/><g><g class="mark-group role-scope" role="graphics-object" aria-roledescription="group mark container"><g transform="translate(0,0)"><path class="background" aria-hidden="true" d="M0,0h122.142578125v12.5h-122.142578125Z" pointer-events="none" opacity="1"/><g><g class="mark-symbol role-legend-symbol" pointer-events="none"><path transform="translate(6,6)" d="M5,0A5,5,0,1,1,-5,0A5,5,0,1,1,5,0" stroke="#4c78a8" stroke-width="1.5" opacity="0.7"/></g><g class="mark-text role-legend-label" pointer-events="none"><text text-anchor="start" transform="translate(16,9)" font-family="sans-serif" font-size="10px" fill="#000" opacity="1">bcftools</text></g></g><path class="foreground" aria-hidden="true" d="" pointer-events="none" display="none"/></g><g transform="translate(0,16)"><path class="background" aria-hidden="true" d="M0,0h122.142578125v12.5h-122.142578125Z" pointer-events="none" opacity="1"/><g><g class="mark-symbol role-legend-symbol" pointer-events="none"><path transform="translate(6,6)" d="M5,0A5,5,0,1,1,-5,0A5,5,0,1,1,5,0" stroke="#f58518" stroke-width="1.5" opacity="0.7"/></g><g class="mark-text role-legend-label" pointer-events="none"><text text-anchor="start" transform="translate(16,9)" font-family="sans-serif" font-size="10px" fill="#000" opacity="1">exon-vcf-query</text></g></g><path class="foreground" aria-hidden="true" d="" pointer-events="none" display="none"/></g><g transform="translate(0,32)"><path class="background" aria-hidden="true" d="M0,0h122.142578125v12.5h-122.142578125Z" pointer-events="none" opacity="1"/><g><g class="mark-symbol role-legend-symbol" pointer-events="none"><path transform="translate(6,6)" d="M5,0A5,5,0,1,1,-5,0A5,5,0,1,1,5,0" stroke="#e45756" stroke-width="1.5" opacity="0.7"/></g><g class="mark-text role-legend-label" pointer-events="none"><text text-anchor="start" transform="translate(16,9)" font-family="sans-serif" font-size="10px" fill="#000" opacity="1">exon-vcf-query-two-files</text></g></g><path class="foreground" aria-hidden="true" d="" pointer-events="none" display="none"/></g></g></g><path class="foreground" aria-hidden="true" d="" pointer-events="none" display="none"/></g></g><g class="mark-text role-legend-title" pointer-events="none"><text text-anchor="start" transform="translate(0,9)" font-family="sans-serif" font-size="11px" font-weight="bold" fill="#000" opacity="1">Run Group</text></g></g><path class="foreground" aria-hidden="true" d="" pointer-events="none" display="none"/></g></g><g class="mark-group role-title"><g transform="translate(100,-17)"><path class="background" aria-hidden="true" d="M0,0h0v0h0Z" pointer-events="none"/><g><g class="mark-text role-title-text" role="graphics-symbol" aria-roledescription="title" aria-label="Title text 'Results from vcf-chr17-query_exon-benchmarks-v0.2.7-rc.3-dirty.json'" pointer-events="none"><text text-anchor="middle" transform="translate(0,10)" font-family="sans-serif" font-size="13px" font-weight="bold" fill="#000" opacity="1">Results from vcf-chr17-query_exon-benchmarks-v0.2.7-rc.3-dirty.json</text></g></g><path class="foreground" aria-hidden="true" d="" pointer-events="none" display="none"/></g></g></g><path class="foreground" aria-hidden="true" d="" display="none"/></g></g></g></svg>