<svg xmlns="http://www.w3.org/2000/svg" xmlns:xlink="http://www.w3.org/1999/xlink" version="1.1" class="marks" width="300" height="259" viewBox="0 0 300 259"><rect width="300" height="259" fill="white"/><g fill="none" stroke-miterlimit="10" transform="translate(94,22)"><g class="mark-group role-frame root" role="graphics-object" aria-roledescription="group mark container"><g transform="translate(0,0)"><path class="background" aria-hidden="true" d="M0.5,0.5h200v200h-200Z" stroke="#ddd"/><g><g class="mark-group role-axis" aria-hidden="true"><g transform="translate(0.5,200.5)"><path class="background" aria-hidden="true" d="M0,0h0v0h0Z" pointer-events="none"/><g><g class="mark-rule role-axis-grid" pointer-events="none"><line transform="translate(0,0)" x2="0" y2="-200" stroke="#ddd" stroke-width="1" opacity="1"/><line transform="translate(40,0)" x2="0" y2="-200" stroke="#ddd" stroke-width="1" opacity="1"/><line transform="translate(80,0)" x2="0" y2="-200" stroke="#ddd" stroke-width="1" opacity="1"/><line transform="translate(120,0)" x2="0" y2="-200" stroke="#ddd" stroke-width="1" opacity="1"/><line transform="translate(160,0)" x2="0" y2="-200" stroke="#ddd" stroke-width="1" opacity="1"/><line transform="translate(200,0)" x2="0" y2="-200" stroke="#ddd" stroke-width="1" opacity="1"/></g></g><path class="foreground" aria-hidden="true" d="" pointer-events="none" display="none"/></g></g><g class="mark-group role-axis" role="graphics-symbol" aria-roledescription="axis" aria-label="X-axis titled 'Time (s)' for a linear scale with values from 0 to 10"><g transform="translate(0.5,200.5)"><path class="background" aria-hidden="true" d="M0,0h0v0h0Z" pointer-events="none"/><g><g class="mark-rule role-axis-tick" pointer-events="none"><line transform="translate(0,0)" x2="0" y2="5" stroke="#888" stroke-width="1" opacity="1"/><line transform="translate(40,0)" x2="0" y2="5" stroke="#888" stroke-width="1" opacity="1"/><line transform="translate(80,0)" x2="0" y2="5" stroke="#888" stroke-width="1" opacity="1"/><line transform="translate(120,0)" x2="0" y2="5" stroke="#888" stroke-width="1" opacity="1"/><line transform="translate(160,0)" x2="0" y2="5" stroke="#888" stroke-width="1" opacity="1"/><line transform="translate(200,0)" x2="0" y2="5" stroke="#888" stroke-width="1" opacity="1"/></g><g class="mark-text role-axis-label" pointer-events="none"><text text-anchor="start" transform="translate(0,15)" font-family="sans-serif" font-size="10px" fill="#000" opacity="1">0</text><text text-anchor="middle" transform="translate(40,15)" font-family="sans-serif" font-size="10px" fill="#000" opacity="1">2</text><text text-anchor="middle" transform="translate(80,15)" font-family="sans-serif" font-size="10px" fill="#000" opacity="1">4</text><text text-anchor="middle" transform="translate(120,15)" font-family="sans-serif" font-size="10px" fill="#000" opacity="1">6</text><text text-anchor="middle" transform="translate(160,15)" font-family="sans-serif" font-size="10px" fill="#000" opacity="1">8</text><text text-anchor="end" transform="translate(200,15)" font-family="sans-serif" font-size="10px" fill="#000" opacity="1">10</text></g><g class="mark-rule role-axis-domain" pointer-events="none"><line transform="translate(0,0)" x2="200" y2="0" stroke="#888" stroke-width="1" opacity="1"/></g><g class="mark-text role-axis-title" pointer-events="none"><text text-anchor="middle" transform="translate(100,30)" font-family="sans-serif" font-size="11px" font-weight="bold" fill="#000" opacity="1">Time (s)</text></g></g><path class="foreground" aria-hidden="true" d="" pointer-events="none" display="none"/></g></g><g class="mark-group role-axis" role="graphics-symbol" aria-roledescription="axis" aria-label="Y-axis titled 'Command' for a discrete scale with 2 values: bcftools, exon-vcf-query"><g transform="translate(0.5,0.5)"><path class="background" aria-hidden="true" d="M0,0h0v0h0Z" pointer-events="none"/><g><g class="mark-rule role-axis-tick" pointer-events="none"><line transform="translate(0,50)" x2="-5" y2="0" stroke="#888" stroke-width="1" opacity="1"/><line transform="translate(0,150)" x2="-5" y2="0" stroke="#888" stroke-width="1" opacity="1"/></g><g class="mark-text role-axis-label" pointer-events="none"><text text-anchor="end" transform="translate(-7,53)" font-family="sans-serif" font-size="10px" fill="#000" opacity="1">bcftools</text><text text-anchor="end" transform="translate(-7,153)" font-family="sans-serif" font-size="10px" fill="#000" opacity="1">exon-vcf-query</text></g><g class="mark-rule role-axis-domain" pointer-events="none"><line transform="translate(0,0)" x2="0" y2="200" stroke="#888" stroke-width="1" opacity="1"/></g><g class="mark-text role-axis-title" pointer-events="none"><text text-anchor="middle" transform="translate(-77.1376953125,100) rotate(-90) translate(0,-2)" font-family="sans-serif" font-size="11px" font-weight="bold" fill="#000" opacity="1">Command</text></g></g><path class="foreground" aria-hidden="true" d="" pointer-events="none" display="none"/></g></g><g class="mark-symbol role-mark marks" role="graphics-object" aria-roledescription="symbol mark container"><path aria-label="Time (s): 9.3265350442; Command: bcftools" role="graphics-symbol" aria-roledescription="circle" transform="translate(186.530700884,50)" d="M1.414,0A1.414,1.414,0,1,1,-1.414,0A1.414,1.414,0,1,1,1.414,0" fill="#4c78a8" stroke-width="2" opacity="0.7"/><path aria-label="Time (s): 9.3377287102; Command: bcftools" role="graphics-symbol" aria-roledescription="circle" transform="translate(186.75457420400002,50)" d="M1.414,0A1.414,1.414,0,1,1,-1.414,0A1.414,1.414,0,1,1,1.414,0" fill="#4c78a8" stroke-width="2" opacity="0.7"/><path aria-label="Time (s): 9.3602696272; Command: bcftools" role="graphics-symbol" aria-roledescription="circle" transform="translate(187.205392544,50)" d="M1.414,0A1.414,1.414,0,1,1,-1.414,0A1.414,1.414,0,1,1,1.414,0" fill="#4c78a8" stroke-width="2" opacity="0.7"/><path aria-label="Time (s): 9.3400008362; Command: bcftools" role="graphics-symbol" aria-roledescription="circle" transform="translate(186.800016724,50)" d="M1.414,0A1.414,1.414,0,1,1,-1.414,0A1.414,1.414,0,1,1,1.414,0" fill="#4c78a8" stroke-width="2" opacity="0.7"/><path aria-label="Time (s): 9.3872664192; Command: bcftools" role="graphics-symbol" aria-roledescription="circle" transform="translate(187.74532838400003,50)" d="M1.414,0A1.414,1.414,0,1,1,-1.414,0A1.414,1.414,0,1,1,1.414,0" fill="#4c78a8" stroke-width="2" opacity="0.7"/><path aria-label="Time (s): 4.8001810442; Command: exon-vcf-query" role="graphics-symbol" aria-roledescription="circle" transform="translate(96.00362088400001,150)" d="M1.414,0A1.414,1.414,0,1,1,-1.414,0A1.414,1.414,0,1,1,1.414,0" fill="#4c78a8" stroke-width="2" opacity="0.7"/><path aria-label="Time (s): 4.8057172942; Command: exon-vcf-query" role="graphics-symbol" aria-roledescription="circle" transform="translate(96.11434588400002,150)" d="M1.414,0A1.414,1.414,0,1,1,-1.414,0A1.414,1.414,0,1,1,1.414,0" fill="#4c78a8" stroke-width="2" opacity="0.7"/><path aria-label="Time (s): 4.8143672112; Command: exon-vcf-query" role="graphics-symbol" aria-roledescription="circle" transform="translate(96.28734422400001,150)" d="M1.414,0A1.414,1.414,0,1,1,-1.414,0A1.414,1.414,0,1,1,1.414,0" fill="#4c78a8" stroke-width="2" opacity="0.7"/><path aria-label="Time (s): 4.8038692112; Command: exon-vcf-query" role="graphics-symbol" aria-roledescription="circle" transform="translate(96.07738422400001,150)" d="M1.414,0A1.414,1.414,0,1,1,-1.414,0A1.414,1.414,0,1,1,1.414,0" fill="#4c78a8" stroke-width="2" opacity="0.7"/><path aria-label="Time (s): 4.7977278782; Command: exon-vcf-query" role="graphics-symbol" aria-roledescription="circle" transform="translate(95.95455756400003,150)" d="M1.414,0A1.414,1.414,0,1,1,-1.414,0A1.414,1.414,0,1,1,1.414,0" fill="#4c78a8" stroke-width="2" opacity="0.7"/></g><g class="mark-group role-title"><g transform="translate(100,-17)"><path class="background" aria-hidden="true" d="M0,0h0v0h0Z" pointer-events="none"/><g><g class="mark-text role-title-text" role="graphics-symbol" aria-roledescription="title" aria-label="Title text 'results/vcf-query'" pointer-events="none"><text text-anchor="middle" transform="translate(0,10)" font-family="sans-serif" font-size="13px" font-weight="bold" fill="#000" opacity="1">results/vcf-query</text></g></g><path class="foreground" aria-hidden="true" d="" pointer-events="none" display="none"/></g></g></g><path class="foreground" aria-hidden="true" d="" display="none"/></g></g></g></svg>